 ######## ######## ######## ##          ######## ########  ######## ######## 
 ##       ##       ##       ##          ##       ##     ## ##       ##       
 ##       ##       ##       ##          ##       ##     ## ##       ##       
 ######   ######   ######   ##          ######   ########  ######   ######   
 ##       ##       ##       ##          ##       ##   ##   ##       ##       
 ##       ##       ##       ##          ##       ##    ##  ##       ##       
 ##       ######## ######## ########    ##       ##     ## ######## ########  

 Genre:Comedy | Romance
 Language:English
 IMDb:  http://www.imdb.com/title/tt1411238/
 Source:BluRay.X264-AMIABLE
 Subtitles:Romana


 Format : MPEG-4
 Format profile : Base Media
 Codec ID : isom
 File size : 2.54 GiB
 Duration : 1h 47mn
 Overall bit rate : 3 364 Kbps


 Video
 Format profile : High@L4.1
 Format settings, CABAC : Yes
 Format settings, ReFrames : 3 frames
 Format settings, GOP : M=2, N=24
 Codec ID : avc1
 Codec ID/Info : Advanced Video Coding
 Duration : 1h 47mn
 Bit rate mode : Variable
 Bit rate : 3 000 Kbps
 Maximum bit rate : 13.2 Mbps
 Width : 1 280 pixels
 Height : 536 pixels
 Display aspect ratio : 2.35:1
 Frame rate mode : Constant
 Frame rate : 23.976 fps
 Color space : YUV
 Chroma subsampling : 4:2:0
 Bit depth : 8 bits
 Scan type : Progressive
 Bits/(Pixel*Frame) : 0.182
 Stream size : 2.21 GiB (87%)
 Writing library : x264


 Audio
 ID : 2
 Format : AAC
 Format/Info : Advanced Audio Codec
 Format version : Version 4
 Format profile : LC
 Format settings, SBR : No
 Codec ID : 40
 Duration : 1h 47mn
 Bit rate mode : Variable
 Bit rate : 428 Kbps
 Maximum bit rate : 540 Kbps
 Channel(s) : 6 channels
 Channel positions : Front: L C R, Side: L R, LFE
 Sampling rate : 48.0 KHz
 Stream size : 331 MiB (13%)


 Plot:
 A guy and girl try to keep their relationship strictly physical, but it's not long before they learn that they want something more.

 ######## ######## ######## ##          ######## ########  ######## ######## 
 ##       ##       ##       ##          ##       ##     ## ##       ##       
 ##       ##       ##       ##          ##       ##     ## ##       ##       
 ######   ######   ######   ##          ######   ########  ######   ######   
 ##       ##       ##       ##          ##       ##   ##   ##       ##       
 ##       ##       ##       ##          ##       ##    ##  ##       ##       
 ##       ######## ######## ########    ##       ##     ## ######## ########  